<svg width="88" height="87" viewBox="0 0 88 87" fill="none" xmlns="http://www.w3.org/2000/svg">
<g clip-path="url(#clip0_55_3178)">
<path d="M-0.000202576 34.3299C-0.000202576 27.5019 -0.0129304 20.6612 -0.000202576 13.8331C0.0125252 9.18807 1.90897 7.17012 6.49097 7.27166C9.32927 7.33511 11.3275 7.13205 11.6839 3.55306C11.8876 1.50973 13.9113 0.481721 16.1641 0.227892C23.7371 -0.609745 30.7756 0.824391 36.9486 5.2791C39.4051 7.0559 41.1233 7.10667 43.6052 5.31717C49.7782 0.887849 56.7912 -0.647819 64.377 0.227892C67.2917 0.570562 69.1499 2.01739 69.4681 4.91104C69.659 6.68785 70.4609 7.29704 72.1282 7.23358C73.2865 7.19551 74.4701 7.15743 75.6284 7.27166C78.3903 7.52549 80.3504 8.95962 80.4268 11.7898C80.6049 19.0366 80.5668 26.2835 80.5795 33.543C80.5795 34.4822 80.3886 35.7005 79.1412 35.5609C77.8939 35.4213 77.6521 34.2537 77.6521 33.1242C77.6521 26.8165 77.6648 20.5089 77.6521 14.2012C77.6394 10.5207 73.8719 8.43927 70.5882 10.2542C69.4045 10.9014 69.5827 12.0056 69.5827 13.0209C69.5572 18.3767 69.5827 23.7452 69.5572 29.101C69.5572 30.2051 69.85 31.7789 68.2208 31.8296C66.5535 31.8804 66.7953 30.3067 66.7953 29.2025C66.7571 21.8541 66.7062 14.5058 66.7698 7.14474C66.7953 4.47953 65.8916 3.09616 62.9642 2.91848C56.4858 2.52505 50.631 4.03533 45.1962 7.58894C42.7397 9.20076 41.607 11.0664 41.6579 14.0616C41.8233 22.0445 41.7088 30.0401 41.7088 38.0231C41.7088 38.7592 41.747 39.4953 41.6833 40.2314C41.5942 41.2086 41.9379 42.6301 40.3978 42.6682C38.7178 42.7062 38.8323 41.2848 38.8323 40.1299C38.8196 31.4108 38.6796 22.6791 38.9087 13.9601C38.985 10.9141 37.8268 9.1373 35.4213 7.53818C29.9101 3.87034 23.9026 2.43621 17.3351 2.96925C15.1077 3.14693 14.1404 4.16225 14.1531 6.38325C14.1913 20.052 14.204 33.7207 14.1404 47.3767C14.1277 50.1561 15.6677 50.8034 18.0096 50.6638C22.6171 50.3973 27.11 50.8034 31.3484 52.7579C32.4048 53.2401 34.1867 53.5701 33.4103 55.2581C32.7484 56.6795 31.3993 55.8419 30.3556 55.4104C26.5754 53.8366 22.6553 53.3036 18.5697 53.4051C12.7658 53.5574 11.2766 52.0345 11.2639 46.1964C11.2384 35.5736 11.2639 24.9636 11.2512 14.3408C11.2384 10.1019 11.0857 9.96225 7.43283 9.96225C3.58904 9.97494 2.85082 10.673 2.8381 14.6073C2.79991 27.7811 2.79991 40.9294 2.82537 54.0651C2.8381 57.9614 3.55085 58.7102 7.44556 58.7355C14.764 58.7863 22.0698 58.7355 29.3883 58.7863C30.4701 58.799 32.1757 58.431 32.252 59.9539C32.3284 61.6038 30.6356 61.6038 29.3756 61.6038C21.7389 61.6292 14.1149 61.7054 6.47825 61.5784C1.89624 61.5023 0.025253 59.3955 -0.000202576 54.8393C-0.0129304 47.9986 -0.000202576 41.1706 -0.000202576 34.3299Z" fill="#3772E3"/>
<path d="M64.3007 87C51.2165 86.9366 40.4234 76.3265 40.767 63.5335C41.1107 51.2355 49.9819 40.4477 64.3389 40.3208C79.345 40.1939 88.1526 52.53 87.9872 64.0538C87.8217 76.7707 77.2958 87.0635 64.3007 87ZM64.4025 43.3287C54.6021 42.7449 43.6944 51.0959 43.6435 63.8762C43.5926 75.1081 53.0748 84.2079 64.3898 84.2079C75.7048 84.2206 85.0598 75.0827 85.1743 63.8888C85.3016 52.5934 75.9339 43.316 64.4025 43.3287Z" fill="#3772E3"/>
<path d="M64.11 49.5983C65.0264 49.6363 65.5992 50.0425 65.6374 50.7024C65.7519 53.0503 67.2793 53.3296 69.1502 53.2661C70.1303 53.228 71.2758 53.3422 71.2376 54.5987C71.1994 55.7409 70.1685 55.9948 69.1248 55.9948C67.432 55.9821 65.7392 55.9821 64.0464 56.0075C61.959 56.0455 60.5463 56.9339 60.559 59.1676C60.5717 61.2363 61.8699 62.1374 63.8555 62.1374C65.4719 62.1374 67.0247 62.4547 68.3993 63.2797C72.2049 65.5387 72.3195 70.7042 68.603 73.2171C67.2411 74.1436 65.4465 74.5751 65.6374 76.7961C65.6883 77.456 65.0392 77.951 64.3391 77.8622C63.6773 77.786 63.0791 77.3037 63.0664 76.6311C63.0282 74.3339 61.5008 74.2324 59.808 74.2959C58.8026 74.3339 57.6698 74.1816 57.6316 73.0013C57.5807 71.5545 58.8662 71.5672 59.948 71.5545C61.6408 71.5291 63.3336 71.5926 65.0264 71.491C66.9483 71.3641 68.3102 70.3488 68.3866 68.3943C68.4502 66.5794 67.3047 65.5261 65.4592 65.2849C64.4155 65.1453 63.3591 65.0311 62.3154 64.8534C59.8717 64.4346 58.4716 62.9243 57.7589 60.6145C57.0588 58.33 57.7589 56.4136 59.3626 54.9033C60.8645 53.4819 63.4864 53.0884 63.3209 50.2328C63.2827 50.0171 63.9064 49.7506 64.11 49.5983Z" fill="#3772E3"/>
</g>
<defs>
<clipPath id="clip0_55_3178">
<rect width="88" height="87" fill="white"/>
</clipPath>
</defs>
</svg>
