<svg width="86" height="84" viewBox="0 0 86 84" fill="none" xmlns="http://www.w3.org/2000/svg">
<g clip-path="url(#clip0_55_3162)">
<path d="M33.9556 70.8653C33.9556 68.2533 33.9811 65.6413 33.9428 63.0293C33.9301 62.247 34.2747 61.1618 33.2535 60.8211C32.2961 60.493 31.8749 61.5782 31.2238 62.0451C27.0113 65.0608 25.0837 68.9851 25.9645 74.1713C26.1815 75.4962 26.0666 76.8842 25.9518 78.2343C25.7092 81.2627 23.2455 83.7738 20.1563 83.8621C15.4842 83.9883 10.7993 83.9126 6.12721 83.8621C5.42511 83.8495 4.65919 83.6097 4.02093 83.2817C0.612586 81.5656 -0.804365 76.6697 0.446637 71.1933C1.25085 67.6728 3.80392 65.6413 7.85053 65.5656C12.5226 65.4772 17.2075 65.4646 21.8796 65.5782C23.8327 65.6287 25.3135 65.1366 26.6538 63.6855C28.5048 61.6665 30.5983 59.8747 32.4876 57.8937C35.1556 55.0798 34.5428 52.2659 31.0196 50.6634C28.5048 49.5151 26.9857 47.6981 26.9985 44.8337C27.024 41.7044 27.0368 38.5624 26.9857 35.4331C26.8709 29.0735 29.8069 24.3921 35.2704 21.2754C37.2235 20.165 37.3257 19.5971 35.7172 17.9946C32.3344 14.6634 31.6451 9.32583 33.7514 5.56558C36.113 1.35107 40.5681 -0.604765 45.6742 0.316371C49.7208 1.03561 53.1674 4.69492 53.7929 9.33845C54.2397 12.594 53.0398 15.4457 50.8186 17.9441C50.2186 18.6129 48.1507 19.4331 49.8612 20.4173C51.342 21.2627 52.7589 23.9631 54.9929 22.0956C58.1459 19.4836 60.8011 16.7959 60.3671 11.8873C59.3714 0.606593 62.6648 -0.276689 72.0984 0.0892416C74.4345 0.17757 76.7705 0.114478 79.1193 0.139715C79.7576 0.152333 80.4086 0.190188 81.0214 0.316371C84.9276 1.12394 86.3062 4.39208 85.9232 11.8243C85.7445 15.37 83.5234 17.982 80.115 18.1082C74.9068 18.3101 69.6985 18.2091 64.4903 18.2596C62.218 18.2848 56.7417 22.1082 56.0013 24.1271C55.7588 24.7959 55.9247 25.3511 56.3332 25.881C59.3841 29.6918 59.4097 34.1965 59.3459 38.7138C59.3203 40.6949 59.3203 42.6886 59.3076 44.6697C59.2948 47.7485 57.8651 49.9946 54.8652 50.7896C52.6824 51.37 52.427 52.6823 52.427 54.4741C52.4526 62.2091 52.427 69.9441 52.4143 77.6791C52.4143 80.493 51.6739 82.9284 48.5847 83.799C47.4996 84.1145 46.2103 84.2154 45.1891 83.4836C43.8232 82.4993 42.6999 82.6003 41.1553 83.3952C37.8746 85.0861 34.2747 83.0167 34.0322 79.37C33.8407 76.5561 33.9939 73.7296 33.9939 70.9031C34.0067 70.8653 33.9811 70.8653 33.9556 70.8653ZM50.6399 56.1902C50.6399 48.7706 50.6271 41.3637 50.6527 33.9441C50.6527 33.187 50.308 31.9378 51.5079 31.9504C52.6185 31.9504 52.427 33.187 52.4398 33.9694C52.4909 38.0451 52.4398 42.1208 52.5164 46.1839C52.5292 47.1555 52.1845 48.5687 53.4227 48.922C54.7886 49.3258 55.8737 48.3037 56.5502 47.2186C57.0864 46.3605 57.5332 45.288 57.5459 44.3037C57.5842 40.3542 57.9417 36.3921 57.163 32.4426C56.3205 28.2659 53.9972 25.187 50.3718 23.0672C41.4744 17.881 30.3686 23.3826 29.1431 33.5277C28.6452 37.5782 28.441 41.6287 29.1686 45.6791C29.526 47.6476 30.8153 49.1492 32.8067 48.9094C34.6449 48.6823 33.9301 46.7012 33.9556 45.4773C34.0577 41.5151 33.9811 37.5403 34.0194 33.5782C34.0322 32.9221 33.828 31.9 34.9513 31.9757C35.7555 32.0388 35.6406 32.9094 35.6662 33.5025C35.7172 34.3353 35.6917 35.1681 35.6917 36.0135C35.6917 49.2754 35.6917 62.5372 35.6917 75.799C35.6917 77.1492 35.5768 78.5119 36.1002 79.8242C36.6108 81.1239 37.4916 81.8684 38.9596 81.881C40.4149 81.8937 41.334 81.1996 41.8956 79.9126C42.3807 78.8148 42.3041 77.6665 42.3041 76.5183C42.3169 67.6476 42.2786 58.7643 42.3424 49.8937C42.3552 48.9094 41.6276 47.1302 43.2488 47.1176C44.4615 47.105 44.0147 48.8211 44.0147 49.7801C44.053 58.4489 44.0402 67.1176 44.0402 75.7864C44.0402 77.2501 43.9764 78.7391 44.5636 80.1145C45.4827 82.2217 48.3549 82.575 49.7846 80.7832C50.6271 79.7233 50.6271 78.4615 50.6271 77.1996C50.6271 70.1839 50.6271 63.1933 50.6399 56.1902ZM13.1737 82.1839C13.1737 82.2217 13.1737 82.2596 13.1737 82.2974C15.3948 82.1839 17.616 82.1586 19.8116 81.9189C22.5562 81.6287 23.9093 80.0261 23.8965 77.288C23.8838 74.7896 23.8455 72.2911 23.9221 69.7927C23.9604 68.2028 23.3349 67.5467 21.7009 67.5593C16.9394 67.6097 12.178 67.5214 7.4165 67.5971C4.6209 67.6476 2.84652 69.1113 2.43803 71.8873C1.62105 77.3384 2.56568 80.6444 5.31023 81.6161C6.38251 81.9946 7.58245 82.0829 8.7441 82.146C10.2121 82.247 11.6929 82.1839 13.1737 82.1839ZM71.5112 16.5056C72.5707 16.5056 73.6302 16.5056 74.6898 16.5056C83.2553 16.5056 84.0978 15.635 83.8553 7.16811C83.7659 3.84949 82.2851 2.04508 78.9151 1.88104C75.0089 1.67915 71.0772 1.72962 67.1582 1.88104C65.0392 1.95675 62.9712 2.92836 62.601 5.12394C62.001 8.60659 61.3117 12.5687 62.8308 15.5593C64.018 17.8937 67.8986 16.1271 70.5538 16.5056C70.8729 16.5435 71.1921 16.5056 71.5112 16.5056ZM51.9292 10.3984C51.8654 5.80533 47.7677 1.83057 43.1339 1.8558C38.4107 1.88104 34.1982 6.17126 34.3769 10.7896C34.5556 15.4079 38.6277 19.1681 43.3764 19.0924C48.0996 19.0041 51.993 15.0545 51.9292 10.3984Z" fill="#3772E3"/>
<path d="M15.4844 0.151458C23.7435 0.201931 30.3049 6.6625 30.2283 14.6499C30.1517 22.7634 23.335 29.388 15.1397 29.2997C7.16138 29.2114 0.35746 22.4732 0.319164 14.6246C0.293633 6.56155 7.07202 0.0883668 15.4844 0.151458ZM15.3695 27.2556C17.897 27.3565 20.1692 26.5363 22.2755 25.2492C24.9818 23.5836 24.8924 23.0915 22.4287 21.06C20.833 19.7351 19.4544 19.5205 17.5779 20.4795C15.1269 21.7287 12.8037 21.0221 10.8633 19.2556C8.8847 17.4511 8.46344 15.1672 9.22936 12.6688C9.77827 10.8518 11.0293 9.65304 12.7271 8.82023C15.5099 7.45745 14.6419 4.75714 14.0164 3.06628C13.3398 1.22401 11.2335 2.57417 9.90592 3.15461C4.54449 5.51423 1.39145 11.6846 2.62969 17.0978C4.03387 23.2177 9.12724 27.2808 15.3695 27.2556ZM21.6373 15.3439C21.599 15.8612 21.4458 16.4038 21.5351 16.9086C21.8926 19.0789 23.9223 19.6846 25.4541 20.6688C26.2711 21.1988 26.6796 20.2776 27.0498 19.6341C30.5602 13.5016 25.9264 3.74767 18.8289 2.43537C18.063 2.29657 17.1183 1.93064 16.5184 2.86439C15.6631 4.18931 16.646 8.10099 18.114 8.89594C20.7692 10.3092 21.8798 12.4543 21.6373 15.3439ZM15.344 10.2461C12.9441 10.2335 10.8378 12.2019 10.774 14.5237C10.7101 16.8959 13.0079 19.1168 15.4588 19.0537C17.7821 18.9906 19.9012 16.8328 19.8884 14.5742C19.8501 12.2903 17.7438 10.2587 15.344 10.2461Z" fill="#3772E3"/>
<path d="M70.924 75.7476C66.7752 75.7476 62.6393 75.7602 58.4905 75.735C57.7757 75.735 56.8438 75.9369 56.563 75.041C56.2439 74.0441 57.1502 73.8675 57.8523 73.6656C59.1416 73.2997 58.899 72.2397 58.9118 71.3438C58.9501 68.7318 58.8607 66.1199 58.9756 63.5079C59.0139 62.4984 58.2863 60.7318 59.9203 60.6561C61.6946 60.5804 60.9543 62.3722 60.9925 63.3564C61.0947 66.0694 61.0181 68.7823 61.0436 71.4952C61.0436 72.5299 60.916 73.6404 62.5499 73.6782C64.1584 73.7161 64.5541 72.8075 64.5668 71.5079C64.5796 67.5457 64.5668 63.571 64.6307 59.6088C64.6434 58.8896 64.2605 57.653 65.5625 57.7161C66.5199 57.7665 66.2902 58.8517 66.2902 59.5331C66.3285 63.2934 66.2902 67.0536 66.3412 70.8139C66.354 72.1262 66.137 73.7034 68.2816 73.6782C70.3878 73.653 69.8262 72.0883 69.8645 70.9527C69.941 68.7571 69.8517 66.5615 69.9027 64.3785C69.9283 63.4322 69.4815 61.918 71.0261 61.9432C72.3409 61.9684 71.8941 63.3943 71.9197 64.2397C71.9835 66.6372 71.958 69.0473 71.958 71.4448C71.958 72.7192 72.175 73.7034 73.8345 73.7034C75.6089 73.7034 75.5578 72.5426 75.5578 71.3691C75.5578 66.5615 75.5067 61.7665 75.6089 56.959C75.6344 55.8612 74.8429 53.8296 76.5152 53.8296C78.5576 53.8296 77.5492 55.9621 77.5875 57.1104C77.7151 61.6025 77.6002 66.0946 77.6641 70.5741C77.6896 71.8612 76.962 73.7792 79.515 73.6782C81.7107 73.5899 81.2256 71.9116 81.2384 70.6624C81.2894 64.8202 81.2384 58.9653 81.2894 53.123C81.3022 52.2145 80.7277 50.6498 82.3617 50.7129C83.5616 50.7508 83.2808 52.1514 83.2936 53.0473C83.3191 59.0031 83.2808 64.9463 83.3319 70.9022C83.3446 71.8486 82.8213 73.0851 84.1871 73.6404C84.9148 73.9432 86.1402 73.8801 85.6424 75.1167C85.2594 76.0883 84.1616 75.7224 83.3574 75.7224C79.2087 75.7602 75.0727 75.7476 70.924 75.7476Z" fill="#3772E3"/>
<path d="M68.2048 81.3502C65.4602 81.3502 62.7029 81.4511 59.9584 81.2997C58.784 81.2366 56.6394 82.2461 56.6394 80.2524C56.6394 78.5994 58.6946 79.3691 59.8052 79.3565C65.5113 79.2682 71.2174 79.2682 76.9363 79.3691C77.9958 79.3817 80.0382 78.5111 79.9617 80.4164C79.8851 82.1073 77.9064 81.2745 76.7831 81.3249C73.9237 81.4385 71.0642 81.3502 68.2048 81.3502Z" fill="#3772E3"/>
<path d="M13.4545 76.7698C15.2417 76.7698 17.0416 76.7698 18.8287 76.7698C19.3904 76.7698 19.9776 76.9464 19.9904 77.5521C20.0031 78.1578 19.4032 78.3849 18.867 78.3849C15.0757 78.4102 11.2844 78.4102 7.49313 78.3849C6.95698 78.3849 6.31872 78.183 6.34425 77.5774C6.38254 76.7445 7.14846 76.7572 7.77396 76.7445C9.676 76.7319 11.5653 76.7319 13.4673 76.7319C13.4545 76.7572 13.4545 76.7572 13.4545 76.7698Z" fill="#3772E3"/>
<path d="M15.9949 73.3881C14.5779 72.6436 12.0376 74.2587 12.0632 72.0379C12.0759 70.3597 14.5397 71.1546 15.829 71.243C17.2587 71.3313 19.9394 70.0064 19.9266 72.3155C19.9011 74.1956 17.2076 72.4922 15.9949 73.3881Z" fill="#3772E3"/>
<path d="M73.1069 7.35647C71.307 7.35647 69.4943 7.36909 67.6944 7.35647C66.9413 7.35647 66.086 7.31862 66.1243 6.28392C66.1498 5.48896 66.8391 5.35016 67.5157 5.35016C71.2304 5.33754 74.9451 5.33754 78.6598 5.35016C79.3236 5.35016 80.013 5.45111 80.064 6.2713C80.1278 7.31862 79.2853 7.35647 78.5194 7.35647C76.7195 7.36909 74.9068 7.35647 73.1069 7.35647Z" fill="#3772E3"/>
<path d="M70.3495 13.0851C68.9581 12.5173 66.3668 13.9053 66.3157 12.0251C66.2646 9.98098 68.8305 11.0535 70.1836 11.0157C71.575 10.9778 74.1536 10.0819 74.1919 11.8863C74.2302 13.9684 71.6516 12.4668 70.3495 13.0851Z" fill="#3772E3"/>
</g>
<defs>
<clipPath id="clip0_55_3162">
<rect width="86" height="84" fill="white"/>
</clipPath>
</defs>
</svg>
