<svg width="88" height="81" viewBox="0 0 88 81" fill="none" xmlns="http://www.w3.org/2000/svg">
<g clip-path="url(#clip0_55_3175)">
<path d="M50.344 0.0506786C56.9507 0.0506786 63.5703 0.0380006 70.177 0.0506786C74.2102 0.0506786 74.4022 0.240849 74.4022 4.09497C74.415 13.4387 74.3894 22.7824 74.4278 32.1388C74.4278 33.0009 73.9157 34.2307 75.0424 34.649C75.9003 34.966 76.438 33.8757 77.0782 33.3812C80.2663 30.909 83.5953 30.7822 86.0408 33.077C88.5247 35.4097 88.704 39.6062 86.3097 42.4841C81.4443 48.3286 76.5404 54.1479 71.5854 59.9164C68.0388 64.0494 63.1349 64.9496 58.0135 65.0129C51.5092 65.1017 45.0049 65.013 38.5006 65.051C32.8926 65.0763 30.5623 66.9907 28.9746 72.2268C27.8223 76.0428 24.4549 78.2361 21.6253 80.721C20.7034 81.5324 19.6535 80.5816 18.8725 79.8209C12.9956 74.027 7.11866 68.2332 1.21614 62.452C-0.0130167 61.2476 -0.601988 60.0558 0.934459 58.7246C3.90492 56.1383 6.08156 52.4237 10.6653 52.0687C11.8432 51.9799 12.3554 50.8769 12.8931 49.9768C15.5179 45.6536 19.2438 42.6109 24.1348 41.2036C26.3114 40.5697 26.926 39.4794 26.9132 37.3748C26.8364 26.1421 26.9516 14.8967 26.8236 3.66392C26.798 0.887429 27.7455 -0.0127116 30.5239 0.0506786C37.1178 0.152103 43.7373 0.0506786 50.344 0.0506786ZM50.6897 2.7511C44.6208 2.7511 38.5518 2.76378 32.4828 2.73842C30.8824 2.73842 29.5636 2.76378 29.5764 4.98244C29.6404 15.8855 29.6148 26.7887 29.5892 37.6918C29.5892 39.1117 30.1013 39.5047 31.5482 39.847C39.8066 41.7868 48.1674 41.7614 56.5666 41.6346C59.6139 41.5839 62.8021 41.1022 65.35 43.473C65.7853 43.8787 66.3999 43.9801 66.784 43.549C68.7302 41.3557 71.7647 40.0119 71.7262 36.3099C71.5982 26.1421 71.6238 15.9743 71.7262 5.80651C71.7519 3.47375 70.9324 2.68771 68.5765 2.72574C62.6228 2.82717 56.6563 2.7511 50.6897 2.7511ZM48.321 62.3506C48.321 62.3379 48.321 62.3379 48.321 62.3506C52.0469 62.3379 55.7856 62.4013 59.5115 62.3252C63.4935 62.2365 67.0913 61.0701 69.7417 57.964C74.5431 52.3349 79.2676 46.6551 84.0434 41.0134C85.6695 39.0864 86.2969 37.0198 84.2355 35.1688C82.2125 33.3432 80.1383 33.9898 78.3458 35.8154C75.2985 38.9089 72.2512 41.9896 69.1783 45.045C68.1028 46.1227 67.437 47.2383 67.2577 48.8484C66.9761 51.4221 65.3884 53.7422 62.8533 54.1098C57.1684 54.9466 51.3683 54.4014 45.6195 54.3761C45.0561 54.3761 44.5695 54.0464 44.4415 53.4886C44.2623 52.7406 44.7872 52.2462 45.4146 52.0814C46.2212 51.8658 47.0791 51.7771 47.9241 51.7771C51.8677 51.739 55.8112 51.7898 59.7548 51.7517C62.8917 51.7137 64.7738 50.2937 64.5434 47.9863C64.2617 45.0957 62.2643 44.221 59.5755 44.297C57.7702 44.3477 55.9521 44.3224 54.1339 44.297C47.348 44.2083 40.626 44.5126 33.8656 42.7376C27.3101 41.0134 18.9237 45.0831 15.5691 50.56C14.9801 51.5235 14.2119 52.3603 15.4795 53.552C19.423 57.2413 23.2898 61.0067 27.0925 64.8228C28.1936 65.9384 29.0002 65.7863 30.0501 64.8862C32.4316 62.8577 35.2612 62.2238 38.3597 62.3252C41.7143 62.4266 45.0177 62.3506 48.321 62.3506ZM11.0238 54.6677C7.91249 54.9086 6.35043 57.1906 4.41707 58.9275C3.31595 59.9164 3.35436 60.7785 4.41707 61.8054C9.48735 66.7245 14.5064 71.6816 19.5639 76.626C20.0888 77.1332 20.601 77.5896 21.51 77.2219C26.6315 75.1681 27.9503 69.3615 24.1092 65.482C21.2156 62.5661 18.2451 59.7135 15.3258 56.8229C14.0839 55.5805 12.6371 54.8071 11.0238 54.6677Z" fill="#3772E3"/>
<path d="M50.7793 26.8775C45.517 26.9282 41.8039 23.7587 40.7796 18.6367C40.3571 16.5575 40.9845 14.2248 39.2431 12.3991C38.795 11.9174 39.2816 11.0299 39.9474 10.9285C41.4838 10.7003 43.1227 10.2312 44.5183 11.3088C45.1457 11.7906 44.6847 12.3738 44.339 12.9443C42.4953 15.9363 42.905 19.5369 45.3121 22.0471C47.6552 24.494 51.0738 25.0645 54.0443 23.5178C57.0147 21.9711 58.8841 17.8761 58.0774 14.6432C58.0006 14.3389 57.911 14.0346 57.7573 13.7684C57.322 13.0204 55.952 12.6147 56.669 11.461C57.4244 10.2439 58.7944 10.7383 59.8956 10.7383C62.1106 10.7383 63.0965 11.3722 61.2784 13.4895C60.1644 14.7953 60.6638 16.5195 60.5101 18.0409C59.9724 23.3149 56.1569 26.8268 50.7793 26.8775Z" fill="#3772E3"/>
</g>
<defs>
<clipPath id="clip0_55_3175">
<rect width="88" height="81" fill="white"/>
</clipPath>
</defs>
</svg>
