<svg width="88" height="86" viewBox="0 0 88 86" fill="none" xmlns="http://www.w3.org/2000/svg">
<g clip-path="url(#clip0_55_3171)">
<path d="M87.9871 38.1676C87.707 48.4011 84.1671 57.3208 76.8964 64.6991C75.5085 66.1141 74.6681 67.3901 74.8718 69.6011C75.1265 72.4437 74.1842 75.2359 72.0323 77.3331C65.2327 83.9281 55.1097 88.489 44.541 84.5345C41.5869 83.4354 39.0912 81.8687 36.8883 79.6831C26.8799 69.7401 17.088 59.5823 6.73581 50.0057C-0.64952 43.1706 -2.52132 29.8038 3.94721 20.3914C5.37334 18.3321 6.93954 16.3106 8.72221 14.5545C11.3071 12.0151 14.6559 11.396 18.1576 11.9393C20.0039 12.2298 21.2773 11.8003 22.6525 10.5242C44.732 -9.81658 80.0415 0.808657 86.9175 29.8038C87.5669 32.5454 88.0763 35.3249 87.9871 38.1676ZM51.9518 83.4227C59.681 83.309 65.5256 80.1505 70.3642 75.1727C73.1019 72.3553 73.1783 67.9713 70.7335 64.7496C68.5179 61.8185 65.8948 59.2032 62.8516 57.0681C59.7701 54.895 56.5995 54.8824 53.4162 57.0302C51.2897 58.4578 49.6471 60.3782 47.8262 62.1343C44.8339 65.0149 44.8594 65.0402 41.8034 62.0333C36.3281 56.6385 30.84 51.2691 25.4029 45.8364C20.3732 40.8081 20.4114 42.1978 25.4029 37.1316C27.3129 35.1986 29.6303 33.5182 30.3434 30.7387C31.9733 24.3712 26.9054 21.4148 23.3783 17.6751C20.7043 14.8325 17.4955 13.607 13.65 14.7061C9.99554 15.7547 8.26381 18.9385 6.22648 21.7054C0.891212 28.9321 1.51514 41.6672 8.58214 48.1358C18.9853 57.6493 28.7772 67.807 38.7219 77.8006C42.5801 81.6413 47.2914 82.9679 51.9518 83.4227ZM49.2906 12.6215C43.1404 12.4194 37.9197 14.6429 33.1065 18.1678C31.1583 19.5955 30.1269 20.8842 31.986 23.1836C33.0301 24.4722 33.1957 26.2284 33.2975 27.934C33.5777 32.6465 30.9291 35.8429 27.6567 38.6097C25.301 40.5933 25.0081 41.9957 27.5293 44.2319C31.8459 48.0726 35.8187 52.3051 39.9188 56.3859C44.7448 61.1742 44.7448 61.1742 49.8126 56.4743C54.5622 52.0776 59.7701 51.4586 64.7106 55.1604C66.748 56.6891 67.6902 56.1458 69.0272 54.516C75.674 46.3418 77.1256 37.2832 72.8345 27.8203C68.3778 17.9657 60.1903 13.0511 49.2906 12.6215ZM50.4748 2.56479C40.3008 2.77957 32.1133 5.6475 25.1737 11.7245C24.4479 12.3562 23.2764 12.8994 23.8239 14.2513C25.1609 17.5867 28.6244 18.4584 31.3875 16.2348C37.9961 10.9159 45.6106 8.83128 53.951 10.36C75.7759 14.365 85.8861 39.6457 70.4661 56.8154C67.4356 60.1887 71.6248 60.972 72.7326 62.6902C74.1588 64.9012 75.292 62.7029 76.056 61.7806C85.4023 50.65 88.2418 38.0917 82.4609 24.6997C76.4126 10.7011 65.0544 3.39864 50.4748 2.56479Z" fill="#3772E3"/>
<path d="M58.5353 28.2372C59.9487 28.5657 60.5217 29.6143 60.5854 30.9661C60.6618 32.5201 60.5854 34.0867 60.6363 35.6534C60.6745 36.8536 60.3434 38.1549 61.7186 39.014C62.4572 39.4689 62.559 40.3406 61.8332 40.8586C60.7382 41.6545 60.5981 42.6905 60.5981 43.8781C60.5981 44.712 60.1652 45.3058 59.2738 45.3058C58.5608 45.3058 57.9623 44.7878 58.0132 44.1435C58.3188 40.9976 56.1414 41.2755 54.1041 41.225C49.9658 41.1239 49.7111 40.707 51.672 37.1821C52.9963 34.8069 54.3842 32.4696 55.7849 30.1576C56.3706 29.1595 57.1219 28.2751 58.5353 28.2372ZM57.4784 33.7204C56.0396 34.9964 54.5243 36.2598 54.9063 38.2813C55.0336 38.9382 56.2815 38.9509 56.88 38.5718C58.8791 37.3084 57.5421 35.4386 57.4784 33.7204Z" fill="#3772E3"/>
<path d="M43.0388 46.0005C42.0201 45.7605 39.9955 46.8596 39.0787 45.3309C38.0091 43.5495 40.0337 42.3745 40.8869 41.0353C42.122 39.0897 43.5609 37.283 44.8087 35.35C45.6618 34.0234 45.9929 32.5705 44.4395 31.4714C42.8605 30.3469 41.7273 31.1176 40.7468 32.4947C40.2629 33.177 39.8045 34.4656 38.6076 33.5433C37.729 32.8611 38.0983 31.8377 38.5439 30.966C39.7027 28.7045 42.6695 27.6938 45.0252 28.7677C47.7247 29.9932 48.8834 32.7474 47.5846 35.5901C46.7314 37.4725 45.4709 39.1908 44.2357 40.8711C42.9369 42.6272 42.8096 43.6632 45.4581 43.6379C46.0821 43.6379 46.7315 43.7011 47.3427 43.8022C48.0302 43.9285 48.5268 44.3202 48.4122 45.0782C48.3358 45.672 47.852 45.9626 47.2917 45.9752C46.0566 46.0258 44.7833 46.0005 43.0388 46.0005Z" fill="#3772E3"/>
</g>
<defs>
<clipPath id="clip0_55_3171">
<rect width="88" height="86" fill="white"/>
</clipPath>
</defs>
</svg>
